<svg xmlns="http://www.w3.org/2000/svg" width="570.08" height="532.44" viewBox="0 0 570.08 532.44"><g id="Layer_2" data-name="Layer 2"><g id="Layer_1-2" data-name="Layer 1"><polygon points="229.37 130.01 205.52 130.01 205.52 49.77 178.13 49.77 179.74 30.11 255.79 30.11 255.79 49.77 229.37 49.77 229.37 130.01" style="fill:#0c2343"></polygon><path d="M335.59,102c0-14.18-43.34-19.49-43.34-42.37,0-15.79,18.53-32.55,60.42-30.46l1.29,21c-30-2.1-36.9.32-36.9,6.44,0,12.57,43.34,19,43.34,42.7,0,16.44-17.24,33.36-67.35,32.07v-21c31.42,2.09,42.54-1.29,42.54-8.38" style="fill:#0c2343"></path><polygon points="439.8 88.76 418.2 88.76 418.2 130.01 394.04 130.01 394.04 30.11 418.2 30.11 418.2 70.71 439.8 70.71 439.8 30.11 464.13 30.11 464.13 130.01 439.8 130.01 439.8 88.76" style="fill:#0c2343"></polygon><polygon points="546.76 111.8 569 111.8 567.38 130.01 501.81 130.01 501.81 111.8 523.08 111.8 523.08 48.32 501.81 48.32 501.81 30.11 568.03 30.11 568.03 48.32 546.76 48.32 546.76 111.8" style="fill:#0c2343"></polygon><polygon points="252.92 160.01 252.92 259.99 231.15 259.99 232.44 204.19 231.8 204.19 222.28 237.74 210.83 237.74 201.32 204.19 200.67 204.19 201.96 259.99 181 259.99 181 160.01 201.96 160.01 216.8 212.26 217.44 212.26 232.12 160.01 252.92 160.01" style="fill:#0c2343"></polygon><path d="M287.34,213.55c0-36.61,16.12-56.12,41.44-56.12,23.22,0,36,17.25,36,49,0,36.61-16.13,56.12-41.44,56.12-23.22,0-36-17.25-36-49m24.51-5.32c0,23.54,5.32,35,15,35s13.39-9.68,13.39-31.45c0-23.54-5.32-35-15-35s-13.38,9.68-13.38,31.45" style="fill:#0c2343"></path><polygon points="401.79 260.49 401.79 160.51 425.65 160.51 425.65 240.82 467.26 240.82 465.32 260.49 401.79 260.49" style="fill:#0c2343"></polygon><path d="M494.94,211.77c0-32.41,14.83-54,38.86-54,24.67,0,36.28,19,36.28,50.48,0,32.41-14.83,54-38.86,54-24.67,0-36.28-19-36.28-50.48m21.6-2.09L546.86,194c-2.26-11.13-7.1-17.91-14.67-17.91-10.81,0-15.65,11.29-15.65,31.61Zm31.93,2.58v-1.13l-30.15,15.48c2.26,10.8,7.09,17.25,14.51,17.25,10.81,0,15.64-11.28,15.64-31.6" style="fill:#0c2343"></path><path d="M177.73,342.66c0-29.67,15.81-53.22,66.45-54.35l1.45,22.58c-38.86-3.06-43.7,9.19-43.7,28.06,0,21.94,7.74,33.06,27.74,34-.49-9.35-1-23.06-1.13-33.06H250c0,20.48.16,35.48.16,48.55-47.9,10.64-72.42-8.87-72.42-45.81" style="fill:#0c2343"></path><path d="M287,343.47c0-36.61,16.12-56.13,41.45-56.13,23.22,0,36,17.26,36,49,0,36.61-16.13,56.13-41.45,56.13-23.22,0-36-17.26-36-49m24.51-5.32c0,23.54,5.32,35,15,35s13.39-9.67,13.39-31.45c0-23.54-5.33-35-15-35s-13.39,9.67-13.39,31.45" style="fill:#0c2343"></path><polygon points="415.65 334.27 414.84 334.27 415.81 389.92 394.04 389.92 394.04 289.92 414.68 289.92 442.42 345.56 443.07 345.56 442.1 289.92 463.87 289.92 463.87 389.92 444.68 389.92 415.65 334.27" style="fill:#0c2343"></polygon><path d="M496.3,342.66c0-29.67,15.81-53.22,66.45-54.35l1.45,22.58c-38.87-3.06-43.71,9.19-43.71,28.06,0,21.94,7.74,33.06,27.74,34-.48-9.35-1-23.06-1.13-33.06h21.45c0,20.48.17,35.48.17,48.55-47.9,10.64-72.42-8.87-72.42-45.81" style="fill:#0c2343"></path><rect x="56.07" width="18.69" height="18.69" style="fill:#0c2343"></rect><polygon points="93.45 149.52 93.45 112.14 74.76 112.14 74.76 93.45 56.07 93.45 56.07 74.76 37.38 74.76 37.38 56.07 56.07 56.07 56.07 18.69 37.38 18.69 37.38 37.38 18.69 37.38 18.69 93.45 37.38 93.45 37.38 130.83 56.07 130.83 56.07 168.21 74.76 168.21 74.76 224.28 56.07 224.28 56.07 242.97 37.38 242.97 37.38 261.67 18.69 261.67 18.69 280.36 0 280.36 0 336.43 18.69 336.43 18.69 373.81 37.38 373.81 37.38 392.5 112.14 392.5 112.14 373.81 93.45 373.81 93.45 336.43 74.76 336.43 74.76 317.74 56.07 317.74 56.07 280.36 74.76 280.36 74.76 261.67 93.45 261.67 93.45 242.97 112.14 242.97 112.14 149.52 93.45 149.52" style="fill:#0c2343"></polygon><rect x="0.61" y="445.45" width="568.99" height="4" style="fill:#0c2343"></rect><rect x="0.61" y="528.44" width="568.99" height="4" style="fill:#0c2343"></rect><path d="M47,512.4h-4.9L30.49,477.75,18.9,512.4H14.06l-12.65-42,5.71-1.24,9.67,34,10.91-33.6h5.83l10.91,33.6,9.48-33.6h6Z" style="fill:#0c2343"></path><path d="M72.53,512.4V469.63h5.82V512.4Z" style="fill:#0c2343"></path><path d="M110.35,475V512.4h-5.83V475H90.88v-5.33h32.61l.87,5.33Z" style="fill:#0c2343"></path><path d="M145.44,512.9a25.92,25.92,0,0,1-12-2.79l.87-5.95a21,21,0,0,0,11.22,3.66c4.47,0,7.63-2.36,7.63-6.51,0-3.91-1.74-5.52-8.19-8.44-8.06-3.65-11.09-6.32-11.09-12.46,0-6.88,5.27-11.28,13-11.28a18.88,18.88,0,0,1,9.73,2.42l-.93,5.83a15.17,15.17,0,0,0-9-3.17c-4.9,0-7.07,2.61-7.07,5.77s1.61,4.83,8.12,7.81c8.31,3.78,11.16,6.63,11.16,13.08C159,508.25,153.44,512.9,145.44,512.9Z" style="fill:#0c2343"></path><path d="M206.75,513.21c-10.35,0-16.55-6.57-16.55-17V469.63H196v25.85c0,7.44,3.35,12.4,10.72,12.4s10.92-4.47,10.92-12.22v-26h5.82v26.28C223.49,506.7,217.11,513.21,206.75,513.21Z" style="fill:#0c2343"></path><path d="M267.2,512.4l-23.49-33.29V512.4h-5.4V469.63h5.21l22.69,32.05V469.63h5.4V512.4Z" style="fill:#0c2343"></path><path d="M287.23,512.4V469.63h5.83V512.4Z" style="fill:#0c2343"></path><path d="M327,512.59h-5.2l-16.5-42.16,5.83-1.24,13.33,35.59,13.08-35.15h6.14Z" style="fill:#0c2343"></path><path d="M355.61,512.4V469.63h23.07V475H361.44v12.4h13.39l.87,5.33H361.44v14.38H379.3v5.33Z" style="fill:#0c2343"></path><path d="M420.9,511.54l-5.89,1.3-13.08-18.48h-4.4v18H391.7V469.63h11.65c8.75,0,14.2,4.34,14.2,12.15,0,6.44-3.78,10.29-9.36,11.84Zm-17.79-36.77h-5.58v14.69h5c5.64,0,9.23-2.54,9.23-7.37C411.72,477.44,408.81,474.77,403.11,474.77Z" style="fill:#0c2343"></path><path d="M442.1,512.9a25.85,25.85,0,0,1-12-2.79l.87-5.95a21,21,0,0,0,11.22,3.66c4.46,0,7.62-2.36,7.62-6.51,0-3.91-1.73-5.52-8.18-8.44-8.06-3.65-11.1-6.32-11.1-12.46,0-6.88,5.27-11.28,13-11.28a18.9,18.9,0,0,1,9.74,2.42l-.93,5.83a15.17,15.17,0,0,0-9-3.17c-4.9,0-7.07,2.61-7.07,5.77s1.61,4.83,8.12,7.81c8.31,3.78,11.16,6.63,11.16,13.08C455.62,508.25,450.1,512.9,442.1,512.9Z" style="fill:#0c2343"></path><path d="M469.07,512.4V469.63h5.83V512.4Z" style="fill:#0c2343"></path><path d="M506.89,475V512.4h-5.82V475H487.43v-5.33H520l.86,5.33Z" style="fill:#0c2343"></path><path d="M550,495.42v17h-5.82v-17l-15.13-25,5.83-1.24,12.27,20.9,12-20.46h6.44Z" style="fill:#0c2343"></path></g></g></svg>